<?xml version="1.0" encoding="UTF-8"?>
<svg id="Layer_2" data-name="Layer 2" xmlns="http://www.w3.org/2000/svg" viewBox="0 0 65.85 109.5">
  <g id="Layer_1-2" data-name="Layer 1">
    <path d="M18.45,70.65c-1.4-5.1-1.9-9.29-1.5-12.56.4-3.27,1.49-5.99,3.26-8.14,1.77-2.15,4.01-4.12,6.71-5.92,4.1-2.7,6.86-4.88,8.29-6.53,1.43-1.65,2.14-3.57,2.14-5.77,0-3-1.1-5.25-3.3-6.75-2.2-1.5-5.5-2.25-9.9-2.25-3.6,0-6.88.51-9.82,1.54-2.95,1.03-6.03,2.49-9.23,4.39L0,8.55c1.15-1.1,3.19-2.31,6.11-3.64,2.93-1.32,6.5-2.48,10.73-3.45,4.22-.98,8.79-1.46,13.69-1.46,6.65,0,12.64,1.09,17.96,3.26s9.55,5.24,12.68,9.19c3.12,3.95,4.69,8.58,4.69,13.88,0,3.15-.58,6-1.73,8.55-1.15,2.55-3,5.06-5.55,7.54-2.55,2.48-5.9,5.14-10.05,7.99-2.8,1.95-4.83,3.75-6.07,5.4-1.25,1.65-1.96,3.61-2.14,5.89-.18,2.28-.04,5.26.41,8.96h-22.27ZM30,109.5c-4.1,0-7.68-1.3-10.72-3.9-3.05-2.6-4.57-6.12-4.57-10.57,0-3,.7-5.57,2.1-7.73,1.4-2.15,3.26-3.83,5.59-5.02,2.32-1.2,4.86-1.8,7.61-1.8,4.15,0,7.73,1.3,10.73,3.9,3,2.6,4.5,6.15,4.5,10.65,0,3-.7,5.58-2.1,7.72-1.4,2.15-3.25,3.81-5.55,4.99-2.3,1.17-4.83,1.76-7.58,1.76Z"/>
  </g>
</svg>