<?xml version="1.0" encoding="UTF-8"?>
<svg id="Layer_2" data-name="Layer 2" xmlns="http://www.w3.org/2000/svg" viewBox="0 0 25.98 25.97">
  <defs>
    <style>
      .cls-1 {
        fill: #fff;
      }
    </style>
  </defs>
  <g id="Layer_1-2" data-name="Layer 1">
    <g id="_7GVFMd" data-name="7GVFMd">
      <g>
        <path class="cls-1" d="M18.72,0H7.21C3.32.06,0,3.37,0,7.25v11.46c.05,3.91,3.35,7.26,7.27,7.26h11.52c3.9-.08,7.18-3.39,7.19-7.26V7.3c0-3.93-3.32-7.3-7.26-7.3ZM23.66,18.44c-.01,2.78-2.25,5.18-5.04,5.19H7.42c-2.79,0-5.09-2.35-5.09-5.12V7.57c-.01-3.04,2.46-5.28,5.44-5.28h10.49c3.02.01,5.41,2.34,5.41,5.38v10.77Z"/>
        <g>
          <path class="cls-1" d="M12.99,6.29c-3.69,0-6.69,3-6.69,6.69s3,6.69,6.69,6.69,6.69-3,6.69-6.69-3-6.69-6.69-6.69ZM12.99,17.32c-2.39,0-4.34-1.94-4.34-4.34s1.95-4.33,4.34-4.33,4.33,1.94,4.33,4.33-1.94,4.34-4.33,4.34Z"/>
          <circle class="cls-1" cx="19.94" cy="6.03" r="1.56"/>
        </g>
      </g>
    </g>
  </g>
</svg>