<?xml version="1.0" encoding="UTF-8"?>
<svg id="Layer_2" data-name="Layer 2" xmlns="http://www.w3.org/2000/svg" viewBox="0 0 25.98 25.97">
  <defs>
    <style>
      .cls-1 {
        fill: #fff;
      }
    </style>
  </defs>
  <g id="Layer_1-2" data-name="Layer 1">
    <g id="C2BbWe.tif">
      <path class="cls-1" d="M24.14,0H1.81C.86.05.08.76,0,1.7v22.54c.08.94.84,1.67,1.78,1.73h22.41c1.02-.08,1.78-.9,1.78-1.91V1.88C25.98.87,25.17,0,24.14,0ZM3.85,22.12v-12.39h3.84s0,12.39,0,12.39h-3.84ZM5.78,8.05c-1.24,0-2.24-1-2.24-2.24s1-2.24,2.24-2.24,2.24,1,2.24,2.24-1,2.24-2.24,2.24ZM18.28,22.12v-6.41c0-.43-.02-.81-.1-1.22-.23-1.22-.93-1.77-2.18-1.67-1.6.13-1.97,1.33-2.05,2.79v6.51s-3.84,0-3.84,0v-12.39s3.68,0,3.68,0l.03,1.73c.71-1.2,1.85-1.87,3.18-2.01l.64-.02c.76-.03,1.49.12,2.19.43.82.36,1.43,1.04,1.77,1.86.46,1.09.54,2.37.55,3.56v6.85s-3.87,0-3.87,0Z"/>
    </g>
  </g>
</svg>