<?xml version="1.0" encoding="UTF-8"?>
<svg id="Layer_2" data-name="Layer 2" xmlns="http://www.w3.org/2000/svg" viewBox="0 0 148.58 54.03">
  <defs>
    <style>
      .cls-1 {
        fill: #fff;
      }
    </style>
  </defs>
  <g id="Layer_1-2" data-name="Layer 1">
    <g>
      <path class="cls-1" d="M13.16,26.04c-2.59,0-4.88-.53-6.86-1.58-1.98-1.05-3.53-2.54-4.64-4.48-1.11-1.93-1.67-4.22-1.67-6.88,0-1.93.32-3.69.97-5.3.65-1.61,1.57-2.99,2.76-4.16,1.19-1.17,2.59-2.07,4.21-2.7,1.62-.64,3.39-.95,5.32-.95,2.15,0,3.94.27,5.36.81,1.42.54,2.72,1.31,3.9,2.31l-3.25,5.39c-.67-.7-1.47-1.23-2.42-1.58-.95-.35-2-.53-3.17-.53-1.08,0-2.05.15-2.89.46-.84.3-1.55.75-2.13,1.33-.58.58-1.02,1.28-1.32,2.1-.3.81-.45,1.73-.45,2.74,0,1.38.27,2.56.82,3.55.55.99,1.33,1.75,2.36,2.27,1.03.53,2.27.79,3.72.79,1.06,0,2.13-.17,3.2-.5,1.08-.33,2.11-.86,3.09-1.57l3,5.49c-1.14.87-2.53,1.58-4.16,2.14-1.63.56-3.55.84-5.76.84Z"/>
      <path class="cls-1" d="M26.47,25.51V.54h6.56v9.03h9.1V.54h6.56v24.97h-6.56v-9.95h-9.1v9.95h-6.56Z"/>
      <path class="cls-1" d="M54.37,25.51V.54h10.36c1.9,0,3.56.3,4.99.91,1.42.61,2.52,1.48,3.3,2.63.78,1.15,1.17,2.54,1.17,4.17,0,1.21-.22,2.28-.67,3.2-.45.92-1.05,1.7-1.81,2.33-.76.63-1.61,1.11-2.55,1.44l6.44,10.29h-7.76l-5.12-8.88h-1.78v8.88h-6.56ZM60.93,11.42h3.07c1.11,0,1.98-.21,2.61-.63.64-.42.95-1.13.95-2.11s-.31-1.71-.93-2.13c-.62-.42-1.47-.63-2.55-.63h-3.16v5.51Z"/>
      <path class="cls-1" d="M79.14,25.51V.54h6.56v24.97h-6.56Z"/>
      <path class="cls-1" d="M100.31,26.04c-1.95,0-3.84-.29-5.68-.87s-3.39-1.43-4.66-2.53l3.07-4.85c.51.56,1.17,1.05,1.99,1.46.81.42,1.69.74,2.61.96.93.23,1.82.34,2.68.34,1.08,0,1.97-.17,2.67-.51.7-.34,1.04-.83,1.04-1.47,0-.57-.26-1.04-.78-1.42-.52-.37-1.47-.75-2.86-1.11l-2-.55c-2.64-.73-4.53-1.72-5.68-3-1.15-1.27-1.72-2.79-1.72-4.57,0-1.12.24-2.16.72-3.12.48-.96,1.16-1.8,2.03-2.51.87-.71,1.9-1.27,3.09-1.66,1.18-.39,2.46-.59,3.84-.59,1.95,0,3.77.28,5.45.85,1.68.56,3.04,1.35,4.06,2.35l-3.18,4.73c-.44-.48-.99-.9-1.65-1.27-.66-.37-1.38-.66-2.17-.86-.78-.21-1.58-.31-2.37-.31-.7,0-1.32.09-1.85.27-.53.18-.94.43-1.22.74-.29.32-.43.68-.43,1.1,0,.36.11.65.34.89.23.24.61.46,1.14.68.54.21,1.26.45,2.18.71l2,.59c2.63.77,4.52,1.74,5.69,2.89,1.17,1.15,1.75,2.64,1.75,4.46,0,1.62-.41,3.04-1.24,4.28-.83,1.24-2,2.2-3.51,2.89-1.52.69-3.3,1.03-5.34,1.03Z"/>
      <path class="cls-1" d="M129.51,26.04c-1.63,0-3.07-.33-4.33-.98-1.26-.65-2.25-1.55-2.97-2.68-.72-1.13-1.08-2.41-1.08-3.85,0-.96.2-1.87.59-2.73s.96-1.64,1.7-2.35c.74-.71,1.65-1.33,2.72-1.85-.55-.59-.99-1.16-1.32-1.7-.33-.54-.58-1.08-.74-1.62-.16-.54-.24-1.1-.24-1.69,0-1.24.33-2.35.99-3.34.66-.99,1.55-1.78,2.68-2.36,1.13-.58,2.4-.87,3.8-.87s2.62.26,3.74.78c1.11.52,1.99,1.23,2.64,2.15.65.92.97,1.98.97,3.19s-.38,2.33-1.13,3.34c-.76,1.02-1.92,1.98-3.51,2.88l3.34,3.5c.64-.8,1.21-1.65,1.71-2.56s.97-2.03,1.43-3.36l4.99,1.91c-.29.82-.69,1.7-1.2,2.65-.52.95-1.09,1.87-1.71,2.76-.62.9-1.25,1.68-1.86,2.35l5.39,5.92h-7.13l-2.09-2.19c-1.01.84-2.18,1.51-3.5,2-1.33.49-2.61.73-3.86.73ZM130.05,20.87c.59,0,1.19-.12,1.79-.36.6-.24,1.16-.57,1.67-1l-4.14-4.35c-.76.33-1.35.78-1.77,1.34-.42.56-.63,1.15-.63,1.78,0,.76.29,1.38.86,1.86s1.31.72,2.23.72ZM130.94,9.31c.83-.31,1.46-.7,1.88-1.18.42-.48.63-.99.63-1.53,0-.61-.19-1.09-.58-1.46-.39-.37-.9-.55-1.54-.55s-1.15.18-1.55.54c-.4.36-.61.83-.61,1.43,0,.43.15.88.45,1.35.3.47.74.94,1.32,1.42Z"/>
      <path class="cls-1" d="M13.38,54.03c-1.94,0-3.72-.33-5.35-.99-1.63-.66-3.05-1.58-4.25-2.76-1.21-1.18-2.14-2.56-2.79-4.14-.65-1.58-.98-3.29-.98-5.14s.33-3.57.98-5.15c.65-1.58,1.58-2.96,2.79-4.14,1.21-1.18,2.62-2.09,4.25-2.75,1.63-.65,3.41-.98,5.35-.98s3.72.33,5.34,1,3.04,1.59,4.25,2.78c1.21,1.19,2.14,2.57,2.81,4.15.67,1.58,1,3.27,1,5.09s-.33,3.56-1,5.14c-.67,1.58-1.6,2.96-2.81,4.14-1.21,1.18-2.62,2.1-4.25,2.76s-3.4.99-5.34.99ZM13.38,47.88c.95,0,1.82-.16,2.61-.48.79-.32,1.48-.78,2.06-1.38.58-.6,1.03-1.32,1.36-2.17.32-.84.48-1.79.48-2.84,0-1.4-.28-2.62-.84-3.65-.56-1.03-1.33-1.82-2.31-2.38-.98-.56-2.1-.84-3.36-.84-.94,0-1.81.16-2.6.48-.8.32-1.49.78-2.07,1.38-.58.6-1.03,1.32-1.35,2.17-.32.84-.47,1.79-.47,2.84,0,1.4.28,2.62.84,3.65.56,1.03,1.33,1.82,2.3,2.38.97.56,2.09.84,3.35.84Z"/>
      <path class="cls-1" d="M39.83,54.03c-1.95,0-3.84-.29-5.68-.87s-3.39-1.43-4.66-2.53l3.07-4.85c.51.56,1.17,1.05,1.99,1.46.81.42,1.69.74,2.61.96.93.23,1.82.34,2.68.34,1.08,0,1.97-.17,2.67-.51.7-.34,1.04-.83,1.04-1.47,0-.57-.26-1.04-.78-1.42-.52-.37-1.47-.75-2.86-1.11l-2-.55c-2.64-.73-4.53-1.72-5.68-3-1.15-1.27-1.72-2.79-1.72-4.57,0-1.12.24-2.16.72-3.12s1.16-1.8,2.03-2.52,1.9-1.27,3.09-1.66c1.18-.39,2.46-.59,3.84-.59,1.95,0,3.77.28,5.45.85,1.68.56,3.04,1.35,4.06,2.35l-3.18,4.73c-.44-.48-.99-.9-1.65-1.27-.66-.37-1.38-.66-2.17-.87-.78-.21-1.58-.31-2.37-.31-.7,0-1.32.09-1.85.27-.53.18-.94.43-1.22.74-.29.32-.43.68-.43,1.1,0,.36.11.65.34.89.23.24.61.46,1.14.68.54.21,1.26.45,2.18.71l2,.59c2.63.77,4.52,1.74,5.69,2.89,1.17,1.15,1.75,2.64,1.75,4.46,0,1.62-.41,3.04-1.24,4.28-.83,1.24-2,2.2-3.51,2.89-1.52.69-3.3,1.03-5.34,1.03Z"/>
      <path class="cls-1" d="M65.44,54.03c-2.59,0-4.88-.53-6.86-1.58-1.98-1.05-3.53-2.54-4.64-4.48-1.11-1.93-1.67-4.22-1.67-6.88,0-1.93.32-3.69.97-5.3.65-1.61,1.57-2.99,2.76-4.16,1.19-1.17,2.59-2.07,4.21-2.7,1.62-.64,3.39-.95,5.32-.95,2.15,0,3.94.27,5.36.81,1.42.54,2.72,1.31,3.9,2.31l-3.25,5.39c-.67-.7-1.47-1.23-2.42-1.58-.95-.35-2-.53-3.17-.53-1.08,0-2.05.15-2.89.45-.84.3-1.55.75-2.13,1.33-.58.58-1.02,1.28-1.32,2.1s-.45,1.73-.45,2.74c0,1.38.27,2.56.82,3.55.55.99,1.33,1.75,2.36,2.27,1.03.53,2.27.79,3.72.79,1.06,0,2.13-.17,3.2-.5,1.08-.33,2.11-.86,3.09-1.57l3,5.49c-1.14.87-2.53,1.58-4.16,2.14-1.63.56-3.55.84-5.76.84Z"/>
      <path class="cls-1" d="M75.95,53.5l9.22-24.97h7.71l9.24,24.97h-7.4l-1.57-4.76h-8.44l-1.55,4.76h-7.21ZM86.15,43.28h5.51l-2.75-7.87-2.76,7.87Z"/>
      <path class="cls-1" d="M104.99,53.5v-24.97h10.36c1.9,0,3.56.3,4.99.91,1.42.61,2.52,1.48,3.3,2.63.78,1.15,1.17,2.54,1.17,4.17,0,1.21-.22,2.28-.67,3.2-.45.92-1.05,1.7-1.81,2.33-.76.63-1.61,1.11-2.55,1.44l6.44,10.29h-7.76l-5.12-8.88h-1.78v8.88h-6.56ZM111.55,39.41h3.07c1.11,0,1.98-.21,2.61-.63.64-.42.95-1.13.95-2.11s-.31-1.71-.93-2.13c-.62-.42-1.47-.63-2.55-.63h-3.16v5.51Z"/>
      <path class="cls-1" d="M136.18,51.29v-7.53h-7.79v-4.41h7.79v-7.53h4.6v7.53h7.79v4.41h-7.79v7.53h-4.6Z"/>
    </g>
  </g>
</svg>